<svg id="Capa_1" data-name="Capa 1" xmlns="http://www.w3.org/2000/svg" viewBox="0 0 1292.4 588.18"><defs><style>.cls-1{fill:#310872;}.cls-2{fill:#e33b6a;}.cls-3{fill:#48acf0;}.cls-4{fill:#06d6a0;}</style></defs><polygon class="cls-1" points="317.15 443.3 336.19 418.92 298.9 418.92 317.15 443.3"/><polygon class="cls-1" points="389.61 443.3 408.65 418.92 371.37 418.92 389.61 443.3"/><polygon class="cls-1" points="354.79 487.61 373.83 463.22 336.54 463.22 354.79 487.61"/><path class="cls-1" d="M507.83,203.49a7.32,7.32,0,0,0-10.21-.19,257,257,0,0,1-23,18.5,109.19,109.19,0,0,0-104.1,32.55c-19.91-21.87-52.11-35.18-86.42-35.18a108.88,108.88,0,0,0-23.76,2.63,256.37,256.37,0,0,1-23-18.5,7.31,7.31,0,0,0-10.2.19c-2.75,2.77-67.17,69.37-67,197.84a279.42,279.42,0,0,0,1.47,28c0,.17,0,.35.06.52,18.51,175.65,201.21,247.87,203.16,248.61a7.25,7.25,0,0,0,5.24,0c2-.78,204.35-80.72,204.68-277.12C575,272.86,510.57,206.26,507.83,203.49ZM502,219a207,207,0,0,1,16.57,23.73,109.22,109.22,0,0,0-26.67-15.54C495.93,224,499.39,221.2,502,219ZM364.52,270c.05.07.12.12.17.19a5.37,5.37,0,0,0,.51.56,6.5,6.5,0,0,0,.53.52c.07.05.12.12.19.17a3.87,3.87,0,0,0,.37.24c.21.14.42.28.64.4a5.51,5.51,0,0,0,.65.31l.63.24a6.7,6.7,0,0,0,.74.19l.64.11a6,6,0,0,0,.74,0c.22,0,.44,0,.67,0s.48-.05.71-.09.45-.09.67-.15.48-.15.71-.24a6.39,6.39,0,0,0,.6-.26,8.1,8.1,0,0,0,.7-.42c.12-.07.24-.12.36-.2l.18-.17a6.66,6.66,0,0,0,.56-.5,6.82,6.82,0,0,0,.53-.55c.05-.06.12-.11.17-.18a94.79,94.79,0,1,1,74.67,153.19c-30.33,0-61.34-15-79-38.27l-.18-.19a6.89,6.89,0,0,0-.52-.56,6.77,6.77,0,0,0-.56-.51c-.07-.05-.12-.12-.19-.18s-.24-.13-.35-.21-.44-.28-.67-.4-.43-.2-.65-.29l-.64-.23c-.24-.07-.49-.12-.73-.17s-.43-.07-.65-.09a6.11,6.11,0,0,0-.74,0c-.22,0-.45,0-.67,0s-.47.06-.71.11a5.06,5.06,0,0,0-.67.17,5.69,5.69,0,0,0-.69.25,6,6,0,0,0-1.29.7,3.79,3.79,0,0,0-.34.2c-.07.06-.13.13-.2.18s-.37.34-.55.52a6.77,6.77,0,0,0-.51.56,1.71,1.71,0,0,0-.18.2,95,95,0,0,1-27.91,25.14,7.8,7.8,0,0,0-1.42.82l0,0A94.82,94.82,0,1,1,284.1,233.8C317.37,233.8,348.19,247.67,364.52,270Zm1.59,131a109.28,109.28,0,0,0,18.06,15.7l-18.58,28.83-19.85-26.59A109.49,109.49,0,0,0,366.11,401ZM233,219c2.59,2.21,6,5,10.08,8.18a109.42,109.42,0,0,0-26.54,15.44A208.77,208.77,0,0,1,233,219ZM177.35,436.62c65.29,7.57,113.49,62.62,113.49,131.59a131.79,131.79,0,0,1-7.49,44C237.61,575.41,188.73,518.09,177.35,436.62ZM367.48,663.71c-8.8-3.75-38.51-17.3-72-42.12a146.3,146.3,0,0,0,10-53.38c0-77.74-55.33-139.59-129.74-146.49-.54-6.67-.91-13.44-.92-20.41a338.1,338.1,0,0,1,3.13-46.24,109.27,109.27,0,0,0,155.13,71.3l27.09,36.31a7.3,7.3,0,0,0,5.86,2.95h.25a7.32,7.32,0,0,0,5.91-3.35l24.51-38A117.62,117.62,0,0,0,450.86,438,109.6,109.6,0,0,0,557,355a340.14,340.14,0,0,1,3.12,46.28c0,7-.39,13.73-.92,20.4a147.22,147.22,0,0,0-122.7,202.05C404.24,647.18,376,660.07,367.48,663.71Zm81.2-49.14a132.51,132.51,0,0,1,108.93-178C546,519.81,495.24,577.86,448.68,614.57Z" transform="translate(-12.25 -90.76)"/><path class="cls-1" d="M219.06,470.82a7.31,7.31,0,0,0-7.31,7.32v21.13a7.32,7.32,0,1,0,14.63,0V478.14A7.32,7.32,0,0,0,219.06,470.82Z" transform="translate(-12.25 -90.76)"/><path class="cls-1" d="M251.6,521.43a7.31,7.31,0,0,0-7.32,7.31v21.14a7.32,7.32,0,0,0,14.64,0V528.74A7.31,7.31,0,0,0,251.6,521.43Z" transform="translate(-12.25 -90.76)"/><path class="cls-1" d="M513.47,470.82a7.31,7.31,0,0,0-7.31,7.32v21.13a7.32,7.32,0,1,0,14.63,0V478.14A7.32,7.32,0,0,0,513.47,470.82Z" transform="translate(-12.25 -90.76)"/><path class="cls-1" d="M480.94,521.43a7.31,7.31,0,0,0-7.32,7.31v21.14a7.32,7.32,0,1,0,14.63,0V528.74A7.31,7.31,0,0,0,480.94,521.43Z" transform="translate(-12.25 -90.76)"/><path class="cls-2" d="M744.48,344.44V246.21a4.8,4.8,0,0,1,4.39-4.4H777.3a4.35,4.35,0,0,1,4.39,4.4v96.38q0,12.26,7.86,19.3t20.57,7.05q12.71,0,20.8-7.05t8.09-19.3V246.21a4.37,4.37,0,0,1,4.4-4.4h28.43a4.8,4.8,0,0,1,4.39,4.4v98.23q0,26.12-19.3,43.8t-46.81,17.68q-27.51,0-46.57-17.68T744.48,344.44Z" transform="translate(-12.25 -90.76)"/><path class="cls-2" d="M936.32,399.91v53.63a5.12,5.12,0,0,1-5.08,5.08h-25a5.12,5.12,0,0,1-5.08-5.08V301.91a5,5,0,0,1,1.5-3.47,4.75,4.75,0,0,1,3.58-1.61h10.4q3.71,0,5.55,5.31l3,8.78a11.93,11.93,0,0,1,1.5-1.73c.69-.69,2.16-2,4.39-3.93a43.86,43.86,0,0,1,7.28-5.08,50.09,50.09,0,0,1,22.89-5.67q22.41,0,37.44,16.18t15,39.3q0,27-15,41.6t-37.68,14.56a52.24,52.24,0,0,1-14.44-2.08Q939.32,402,936.32,399.91Zm3.47-66a23.75,23.75,0,0,0,0,32.59,23,23,0,0,0,32.24,0A23.29,23.29,0,0,0,972,334a22.89,22.89,0,0,0-32.24-.12Z" transform="translate(-12.25 -90.76)"/><path class="cls-2" d="M1069.92,406.15q-23.58,0-38.14-8.78-3.46-2.08-1.85-5.55l8.55-17.56a3.79,3.79,0,0,1,2.2-2.43,3.44,3.44,0,0,1,3.35.12q13.88,6.71,26.35,6.7,8.08,0,8.09-5.09,0-2.54-4-4.85a118.69,118.69,0,0,0-14.22-6.24q-16.18-6.24-23.69-14.22T1029,327.8q0-15,10.17-24.16t30.28-9.13q20.8,0,36.52,8.09,5.07,2.55,2.77,6.94l-8.32,17.1a3.17,3.17,0,0,1-2.2,2,4.61,4.61,0,0,1-3.35-.12q-13.41-6.47-25-6.47-7.64,0-7.63,4.39,0,3.46,12,7.86,19.41,7.17,29.24,15.25t9.82,22.66q0,14.55-11.44,24.27T1069.92,406.15Z" transform="translate(-12.25 -90.76)"/><path class="cls-2" d="M1130.48,384.2a21.52,21.52,0,0,1,6.47-15.61A20.68,20.68,0,0,1,1152.2,362a22.47,22.47,0,0,1,22.19,22.19,20.68,20.68,0,0,1-6.58,15.25,21.56,21.56,0,0,1-15.61,6.47,22.1,22.1,0,0,1-21.72-21.72Zm17.1-43.46a4.18,4.18,0,0,1-2.89-1.15,4.38,4.38,0,0,1-1.5-2.55l-11.33-64.48V246.21a4.42,4.42,0,0,1,1.27-3,4.1,4.1,0,0,1,3.13-1.39h32.36a4.09,4.09,0,0,1,3.12,1.39,4.42,4.42,0,0,1,1.27,3v25.88l-11.33,65a4.43,4.43,0,0,1-1.5,2.55,4.18,4.18,0,0,1-2.89,1.15Z" transform="translate(-12.25 -90.76)"/><path class="cls-1" d="M655.37,556.13a1.75,1.75,0,0,1-1.55-.76,1.56,1.56,0,0,1,0-1.69l29.41-63.23a1.62,1.62,0,0,1,1.59-1h.94a1.64,1.64,0,0,1,1.6,1l29.41,63.23a1.56,1.56,0,0,1-.05,1.69,1.74,1.74,0,0,1-1.55.76H704.7a3.55,3.55,0,0,1-3.28-2.35L698,546.35H672.47l-3.38,7.52a3.39,3.39,0,0,1-3.38,2.26Zm22.74-22.56h14.28l-7.14-15.5h-.09Z" transform="translate(-12.25 -90.76)"/><path class="cls-1" d="M721.62,554.06V492.42a2,2,0,0,1,.61-1.41,1.9,1.9,0,0,1,1.45-.66h10.15a1.92,1.92,0,0,1,1.46.66,2,2,0,0,1,.61,1.41v61.64a2,2,0,0,1-.61,1.46,2,2,0,0,1-1.46.61H723.68a2.08,2.08,0,0,1-2.06-2.07Z" transform="translate(-12.25 -90.76)"/><path class="cls-1" d="M790,514.78v39.94q0,11.26-6.43,17.19t-16.78,5.92a30,30,0,0,1-9.39-1.6,23,23,0,0,1-6.77-3.1,2.05,2.05,0,0,1-.47-2.44l3.29-7.89a1.72,1.72,0,0,1,1-.94A1.82,1.82,0,0,1,756,562q5.93,3.48,10.52,3.48,9.21,0,9.21-8.65v-2.25a11.83,11.83,0,0,1-4.18,1.78,21.75,21.75,0,0,1-5.87.85,21.3,21.3,0,0,1-15.37-5.92q-6.15-5.93-6.15-16.91a22.55,22.55,0,0,1,6.15-16,20.1,20.1,0,0,1,15.27-6.57,18.62,18.62,0,0,1,7.9,1.69,15.72,15.72,0,0,1,5.16,3.38l1.6,1.6,1.22-3.57c.5-1.44,1.25-2.17,2.26-2.17H788a1.91,1.91,0,0,1,1.45.66A2,2,0,0,1,790,514.78Zm-31.48,19.64a9,9,0,0,0,2.68,6.62,9.36,9.36,0,0,0,13.11,0,9.65,9.65,0,0,0,0-13.24,9.31,9.31,0,0,0-13.11,0A9.07,9.07,0,0,0,758.54,534.42Z" transform="translate(-12.25 -90.76)"/><path class="cls-1" d="M798,534.33a22.6,22.6,0,0,1,45.2,0,22.16,22.16,0,0,1-6.63,16.06,22.17,22.17,0,0,1-31.9,0A22.08,22.08,0,0,1,798,534.33Zm13.53,0a9.17,9.17,0,0,0,2.68,6.62,8.61,8.61,0,0,0,6.43,2.77A8.46,8.46,0,0,0,827,541a9.25,9.25,0,0,0,2.63-6.62,9,9,0,0,0-2.63-6.49,8.56,8.56,0,0,0-6.39-2.72,8.71,8.71,0,0,0-6.43,2.72A8.93,8.93,0,0,0,811.54,534.33Z" transform="translate(-12.25 -90.76)"/><path class="cls-1" d="M888.4,557.16q-9.58,0-15.5-3.57a1.6,1.6,0,0,1-.76-2.26l3.48-7.14a1.53,1.53,0,0,1,.89-1,1.42,1.42,0,0,1,1.37,0A24.59,24.59,0,0,0,888.59,546c2.19,0,3.29-.69,3.29-2.07,0-.69-.55-1.35-1.65-2a47.41,47.41,0,0,0-5.78-2.54q-6.57-2.53-9.63-5.78a11.65,11.65,0,0,1-3.05-8.31,12.56,12.56,0,0,1,4.13-9.82q4.14-3.72,12.31-3.71a32,32,0,0,1,14.85,3.28c1.38.69,1.75,1.63,1.13,2.82l-3.39,7a1.26,1.26,0,0,1-.89.79,1.82,1.82,0,0,1-1.36,0A23.45,23.45,0,0,0,888.4,523c-2.07,0-3.1.59-3.1,1.78q0,1.41,4.89,3.2,7.89,2.91,11.88,6.2a11.27,11.27,0,0,1,4,9.21,12.42,12.42,0,0,1-4.66,9.86Q896.76,557.16,888.4,557.16Z" transform="translate(-12.25 -90.76)"/><path class="cls-1" d="M916,553.21a13.4,13.4,0,0,1-4.28-10.33A13.6,13.6,0,0,1,916,532.45q4.32-4.05,11.65-4a19.85,19.85,0,0,1,4.32.47,16.25,16.25,0,0,1,3.19.94l1,.47a8.46,8.46,0,0,0-1.22-5.08c-.82-1.06-2.42-1.6-4.8-1.6a37.69,37.69,0,0,0-10.9,1.51q-2.25.75-2.63-2.26l-1-6.67a2.38,2.38,0,0,1,1.69-3,34,34,0,0,1,5.73-.89,83.28,83.28,0,0,1,8.74-.51q10,0,14.05,4.27T950,530.1v24a1.94,1.94,0,0,1-.66,1.46,2.08,2.08,0,0,1-1.41.61h-4.6a2.12,2.12,0,0,1-2-1.41l-1.41-2.92c-1.25,1.07-2.3,1.9-3.14,2.49a17.33,17.33,0,0,1-4,1.88,17.54,17.54,0,0,1-6,1A15.26,15.26,0,0,1,916,553.21Zm9.72-11.37a4.81,4.81,0,0,0,4.8,4.8,4.79,4.79,0,0,0,3.43-1.41,4.62,4.62,0,0,0,0-6.72,4.72,4.72,0,0,0-3.43-1.46,4.56,4.56,0,0,0-3.39,1.46A4.65,4.65,0,0,0,925.7,541.84Z" transform="translate(-12.25 -90.76)"/><path class="cls-1" d="M960.28,554.06V492.42a2,2,0,0,1,.61-1.41,1.94,1.94,0,0,1,1.46-.66H972.5A1.91,1.91,0,0,1,974,491a2,2,0,0,1,.61,1.41v61.64a2.08,2.08,0,0,1-2.06,2.07H962.35a2,2,0,0,1-1.46-.61A2,2,0,0,1,960.28,554.06Z" transform="translate(-12.25 -90.76)"/><path class="cls-1" d="M998,504.3a7.88,7.88,0,0,1-5.78,2.4,7.69,7.69,0,0,1-5.73-2.4,7.81,7.81,0,0,1-2.35-5.68,8.12,8.12,0,0,1,2.35-5.83,7.66,7.66,0,0,1,5.73-2.44,7.85,7.85,0,0,1,5.78,2.44,8,8,0,0,1,2.39,5.83A7.73,7.73,0,0,1,998,504.3Zm-12.83,49.76V514.78a1.93,1.93,0,0,1,.61-1.5,2.08,2.08,0,0,1,1.46-.57H997.4a2,2,0,0,1,1.45.57,1.93,1.93,0,0,1,.61,1.5v39.28a2.08,2.08,0,0,1-2.06,2.07H987.25a2,2,0,0,1-1.46-.61A2,2,0,0,1,985.18,554.06Z" transform="translate(-12.25 -90.76)"/><path class="cls-1" d="M1007.45,534.33a22.6,22.6,0,0,1,45.2,0,22.16,22.16,0,0,1-6.63,16.06,22.17,22.17,0,0,1-31.9,0A22.08,22.08,0,0,1,1007.45,534.33ZM1023.61,508c-1.06.69-1.91.4-2.53-.85l-2-3.95c-.31-.62-.12-1.22.57-1.78l16-9.77a1.63,1.63,0,0,1,1.27-.33,1.25,1.25,0,0,1,1.17.61l3.2,5.54q1,1.89-.57,2.82ZM1021,534.33a9.17,9.17,0,0,0,2.68,6.62,8.61,8.61,0,0,0,6.44,2.77,8.49,8.49,0,0,0,6.39-2.77,9.29,9.29,0,0,0,2.63-6.62,9,9,0,0,0-2.63-6.49,8.59,8.59,0,0,0-6.39-2.72,8.71,8.71,0,0,0-6.44,2.72A8.93,8.93,0,0,0,1021,534.33Z" transform="translate(-12.25 -90.76)"/><path class="cls-1" d="M1083.18,554.06V514.78a1.83,1.83,0,0,1,2.07-2.07h4.13a1.76,1.76,0,0,1,1.79,1.23l1.79,4.41c1.37-1.37,2.47-2.41,3.28-3.1a17.19,17.19,0,0,1,4-2.25,15.12,15.12,0,0,1,6.11-1.22,14.07,14.07,0,0,1,6.91,1.5,25.79,25.79,0,0,1,6,5.07q6.12-6.57,13.72-6.57,17.76,0,17.76,22v20.3a2.08,2.08,0,0,1-2.06,2.07h-10.15a2,2,0,0,1-1.51-.61,2.12,2.12,0,0,1-.56-1.46v-21q0-8-6.39-8a5.43,5.43,0,0,0-4.46,2,8,8,0,0,0-1.65,5.21v21.71c0,1.38-.65,2.07-2,2.07h-10.24a2,2,0,0,1-1.46-.61,2,2,0,0,1-.61-1.46v-21a12.55,12.55,0,0,0-1.13-5.91q-1.12-2.07-4.41-2.07a6.16,6.16,0,0,0-4.94,2,8,8,0,0,0-1.73,5.4v21.52a1.94,1.94,0,0,1-.66,1.46,2.08,2.08,0,0,1-1.41.61h-10.15a2,2,0,0,1-1.5-.61A2.08,2.08,0,0,1,1083.18,554.06Z" transform="translate(-12.25 -90.76)"/><path class="cls-1" d="M1162.53,553.21a13.39,13.39,0,0,1-4.27-10.33,13.63,13.63,0,0,1,4.32-10.43q4.32-4.05,11.65-4a19.85,19.85,0,0,1,4.32.47,16.39,16.39,0,0,1,3.2.94l1,.47a8.46,8.46,0,0,0-1.22-5.08c-.81-1.06-2.41-1.6-4.79-1.6a37.64,37.64,0,0,0-10.9,1.51q-2.25.75-2.63-2.26l-1-6.67a2.38,2.38,0,0,1,1.69-3,33.64,33.64,0,0,1,5.73-.89,83.13,83.13,0,0,1,8.74-.51q10,0,14,4.27t4.09,14.05v24a1.94,1.94,0,0,1-.66,1.46,2.08,2.08,0,0,1-1.41.61h-4.6a2.09,2.09,0,0,1-2-1.41l-1.41-2.92c-1.26,1.07-2.3,1.9-3.15,2.49a17.22,17.22,0,0,1-4,1.88,17.64,17.64,0,0,1-6,1A15.26,15.26,0,0,1,1162.53,553.21Zm9.73-11.37a4.81,4.81,0,0,0,4.79,4.8,4.76,4.76,0,0,0,3.43-1.41,4.6,4.6,0,0,0,0-6.72,4.69,4.69,0,0,0-3.43-1.46,4.55,4.55,0,0,0-3.38,1.46A4.65,4.65,0,0,0,1172.26,541.84Z" transform="translate(-12.25 -90.76)"/><path class="cls-1" d="M1206.84,554.06V492.42a2,2,0,0,1,.61-1.41,1.9,1.9,0,0,1,1.45-.66h10.15a1.92,1.92,0,0,1,1.46.66,2,2,0,0,1,.61,1.41v61.64a2,2,0,0,1-.61,1.46,2,2,0,0,1-1.46.61H1208.9a2.08,2.08,0,0,1-2.06-2.07Z" transform="translate(-12.25 -90.76)"/><path class="cls-1" d="M1262.09,529a8.3,8.3,0,0,1-6-2.49,8.17,8.17,0,0,1-2.53-6.06,8.33,8.33,0,0,1,2.53-6.11,8.22,8.22,0,0,1,6-2.53,8.47,8.47,0,0,1,6.15,2.53,8.27,8.27,0,0,1,2.59,6.11,8.15,8.15,0,0,1-2.59,6A8.48,8.48,0,0,1,1262.09,529ZM1256,554.62a8.39,8.39,0,0,1-2.49-6.11,8.66,8.66,0,0,1,8.55-8.64,8.48,8.48,0,0,1,6.15,2.54,8.49,8.49,0,0,1,0,12.21,8.48,8.48,0,0,1-6.15,2.54A8.16,8.16,0,0,1,1256,554.62Z" transform="translate(-12.25 -90.76)"/><path class="cls-1" d="M1302.4,563.55q-23.88-1.69-23.87-37,0-35.71,23.87-36.93a1.59,1.59,0,0,1,1.31.42,1.66,1.66,0,0,1,.57,1.27l.37,8a1.66,1.66,0,0,1-1.22,1.78q-5.73,1.79-8.27,8.13t-2.54,17.34q0,11.09,2.54,17.38t8.27,8.18a1.86,1.86,0,0,1,1.22,1.78l-.37,7.89A1.74,1.74,0,0,1,1302.4,563.55Z" transform="translate(-12.25 -90.76)"/><path class="cls-1" d="M272.91,341.34c-14.73,0-25.49-14.37-26.67-16a7.32,7.32,0,0,1,11.87-8.56h0c1.88,2.58,8.64,9.93,14.8,9.93s12.93-7.35,14.81-9.93a7.31,7.31,0,0,1,11.86,8.56C298.4,327,287.65,341.34,272.91,341.34Z" transform="translate(-12.25 -90.76)"/><path class="cls-1" d="M272.91,379.72a51.62,51.62,0,1,1,51.63-51.62A51.68,51.68,0,0,1,272.91,379.72Zm0-88.61a37,37,0,1,0,37,37A37,37,0,0,0,272.91,291.11Z" transform="translate(-12.25 -90.76)"/><path class="cls-1" d="M463.14,346.21c-14.73,0-25.49-14.36-26.67-16a7.32,7.32,0,0,1,11.87-8.56h0c1.88,2.57,8.64,9.93,14.8,9.93s12.93-7.36,14.81-9.93a7.31,7.31,0,0,1,11.86,8.56C488.64,331.85,477.88,346.21,463.14,346.21Z" transform="translate(-12.25 -90.76)"/><path class="cls-1" d="M463.14,384.6A51.63,51.63,0,1,1,514.77,333,51.68,51.68,0,0,1,463.14,384.6Zm0-88.61a37,37,0,1,0,37,37A37,37,0,0,0,463.14,296Z" transform="translate(-12.25 -90.76)"/><circle class="cls-3" cx="453.41" cy="284.07" r="19.51"/><circle class="cls-3" cx="453.41" cy="330.41" r="14.63"/><circle class="cls-3" cx="453.41" cy="376.75" r="9.76"/><path class="cls-4" d="M297.72,171.86s-68.32,11.43-116.46,50.2S105.2,325.55,105.2,325.55L140,368.79s42.27-51.56,87.39-87.85,104.51-66.68,104.51-66.68l-34.16-42.4Zm0,0" transform="translate(-12.25 -90.76)"/><path class="cls-4" d="M37.4,357.86a7.32,7.32,0,0,1,7.07,2.61L84.1,409.65A7.34,7.34,0,0,1,83,420l-1,.78a7.35,7.35,0,0,0-1.11,10.32l8.52,10.63a7.36,7.36,0,0,0,12.68-2.19l2.47-7.1a7.33,7.33,0,0,1,6.4-4.91l5-.37a7.35,7.35,0,0,0,5.18-11.95l-8.07-10a7.35,7.35,0,0,0-10.36-1.1h0A7.33,7.33,0,0,1,92.43,403c-7.15-8.87-19.14-23.79-31.05-38.59a7.36,7.36,0,0,1,4.39-11.84L91,347.88a7.35,7.35,0,0,0,4.4-11.82L93,333a7.37,7.37,0,0,1-.9-7.74c7.51-16,36.86-74.18,82.84-111.19s108.6-51.74,125.51-55.17a7.31,7.31,0,0,1,7.13,2.58l4.69,5.77,33.18-65.85a7.36,7.36,0,0,0-7.72-10.57L114.23,126.43a7.33,7.33,0,0,0-5.65,4.48L40.44,298.26a7.43,7.43,0,0,0-4.79-.25C-6.35,308.28,21,331.2,21,331.2l4,5-5.46,13.48a7.36,7.36,0,0,0,8.17,10ZM38.12,345a10.35,10.35,0,1,1,14.5,1.57A10.35,10.35,0,0,1,38.12,345Zm-8.5-20.09c-2.14-2.57-3.56-4.36-4-5-5.12-6.32,3.94-8.1,9.57-8.62Zm5.53-13.65" transform="translate(-12.25 -90.76)"/></svg>